<?xml version="1.0" encoding="utf-8"?>
<!-- Generator: Adobe Illustrator 16.0.0, SVG Export Plug-In . SVG Version: 6.00 Build 0)  -->
<!DOCTYPE svg PUBLIC "-//W3C//DTD SVG 1.1//EN" "http://www.w3.org/Graphics/SVG/1.1/DTD/svg11.dtd">
<svg version="1.1" id="Layer_1" xmlns="http://www.w3.org/2000/svg" xmlns:xlink="http://www.w3.org/1999/xlink" x="0px" y="0px"
	 width="350px" height="50px" viewBox="0 0 350 50" enable-background="new 0 0 350 50" xml:space="preserve">
<g>
	<g>
		<path fill="#FABF46" d="M21.708,22.859"/>
		<path fill="#FABF46" d="M20.674,20.446"/>
		<g>
			<g>
				<g>
					<g>
						<g>
							<g>
								<g>
									<path fill="#FABF46" d="M24.58,23.491c-0.402-0.517-1.148-0.632-1.666-0.172l-1.779,1.665
										c-0.518,0.458-0.575,1.262-0.116,1.836c0.402,0.518,1.149,0.635,1.666,0.174l1.78-1.667
										C24.925,24.812,24.982,24.008,24.58,23.491z"/>
								</g>
								<g>
									<path fill="#FABF46" d="M21.88,28.373L21.88,28.373c-0.689,0-1.321-0.346-1.78-0.861c-0.747-0.977-0.632-2.414,0.23-3.275
										l1.78-1.665c0.919-0.862,2.47-0.747,3.274,0.287c0.747,0.976,0.632,2.412-0.23,3.274l-1.78,1.666
										C22.971,28.143,22.456,28.373,21.88,28.373z M23.719,24.122L21.88,25.73c-0.057,0.06-0.115,0.288,0,0.346l0.057,0.057l0,0
										l1.782-1.666C23.776,24.41,23.776,24.237,23.719,24.122z"/>
								</g>
							</g>
						</g>
						<g>
							<g>
								<g>
									<g>
										<path fill="#FABF46" d="M60.538,14.471c-0.23-0.631-2.24-5.284-7.352-6.892c-5.802-1.781-13.154,1.035-21.885,8.328
											l1.207,1.838c8.042-6.777,14.991-9.534,20.104-7.983c4.423,1.379,6.146,5.743,6.146,5.743
											c5.112,11.143-2.125,18.497-2.47,18.786c-2.47,2.354-5.229,3.387-8.156,2.986c-3.275-0.402-6.492-2.473-9.135-4.826
											l-1.55,1.551c3.561,3.215,7.065,5.111,10.397,5.514c0.516,0.057,0.976,0.115,1.493,0.115c2.988,0,5.744-1.205,8.272-3.619
											C57.723,35.955,66.626,26.994,60.538,14.471z"/>
									</g>
									<g>
										<path fill="#FABF46" d="M49.337,40.777c-0.517,0-1.092-0.055-1.608-0.111c-3.562-0.461-7.238-2.414-10.972-5.803
											l-0.862-0.748l3.045-3.1l0.747,0.688c3.044,2.701,5.917,4.193,8.559,4.539c2.642,0.344,5.055-0.574,7.296-2.699
											c0.287-0.287,7.007-7.123,2.24-17.578c-0.058-0.114-1.608-3.962-5.456-5.169c-4.654-1.436-11.432,1.321-19.071,7.754
											l-0.92,0.747l-2.469-3.619l0.747-0.632C39.629,7.465,47.384,4.593,53.53,6.489c5.573,1.723,7.696,6.548,8.042,7.523
											c6.375,13.21-3.103,22.632-3.16,22.748C55.655,39.459,52.611,40.777,49.337,40.777z M38.997,34.002
											c3.102,2.643,6.148,4.137,8.962,4.537c3.216,0.402,6.203-0.689,8.903-3.273c0,0,0.114-0.113,0.229-0.23l-0.057,0.057
											c-2.701,2.586-5.802,3.736-9.075,3.275C45.145,38.023,42.157,36.529,38.997,34.002L38.997,34.002z M32.736,16.139
											L32.736,16.139c6.492-5.171,12.178-7.87,16.946-7.87c1.148,0,2.24,0.172,3.272,0.46c2.471,0.746,4.194,2.354,5.285,3.733
											c-1.032-1.437-2.756-3.045-5.342-3.848C47.613,7.004,40.778,9.533,32.736,16.139z"/>
									</g>
								</g>
							</g>
						</g>
						<g>
							<g>
								<path fill="#FABF46" d="M36.47,34.805c0,0-1.666-1.205-0.459-2.986c0,0,0.575-0.975,1.666-1.033c0,0,0.632-0.115,1.263,0.23
									c0,0,1.551,1.205,2.011,1.664c0.517,0.461,0.631,0.631,0.631,0.631l0.114,1.781l-4.307,0.461L36.47,34.805z"/>
							</g>
						</g>
					</g>
					<g>
						<g>
							<path fill="#FABF46" d="M35.148,24.697"/>
						</g>
					</g>
					<g>
						<g>
							<path fill="#FABF46" d="M29.808,15.737c0,0-9.421,8.156-9.593,8.615c-0.229,0.46,0.23,1.837,0.23,1.837l1.208,0.861
								l2.182,0.232l1.608-1.61c0,0,8.788-8.215,9.133-8.443c0.345-0.288,0.229-2.068,0.229-2.068L29.808,15.737z"/>
						</g>
					</g>
					<g>
						<g>
							<path fill="#FABF46" d="M24.982,26.189c0,0,8.386-7.697,8.617-7.983c0.287-0.287-0.69-0.346-0.69-0.346l-8.157,7.983
								L24.982,26.189z"/>
						</g>
					</g>
				</g>
				<g>
					<g>
						<path fill="#FABF46" d="M23.258,27.799c0,0,2.184-1.723,3.562-3.332c1.437-1.608-1.78-1.379-1.78-1.379l-2.183,2.126
							L23.258,27.799z"/>
					</g>
				</g>
				<g>
					<g>
						<g>
							<path fill="#FABF46" d="M29.29,21.998"/>
						</g>
					</g>
				</g>
				<g>
					<g>
						<path fill="#FABF46" d="M28.773,16.597c0,0,1.264-1.092,1.724-1.493c0.517-0.402,0.517-0.402,0.517-0.402l0.46,0.345
							l-2.701,2.011V16.597z"/>
					</g>
				</g>
				<g>
					<g>
						<path fill="#FABF46" d="M26.591,18.55c0,0,1.78-1.723,3.043-2.699c1.265-0.978,2.183-0.517,2.183-0.517l-1.896,2.699
							c0,0-1.723,1.092-1.837,1.149C27.969,19.239,26.591,18.55,26.591,18.55z"/>
					</g>
				</g>
				<g>
					<g>
						<path fill="#FABF46" d="M24.925,20.043c0,0,4.594-4.365,7.811-6.663c3.159-2.297,3.333-1.952,3.333-1.837
							c0,0.058-1.954,4.709-1.954,4.709s-3.561,2.412-4.422,2.528C28.773,18.837,24.925,20.043,24.925,20.043z"/>
					</g>
				</g>
				<g>
					<g>
						<path fill="#FABF46" d="M22.685,28.143c0,0,5.572-4.768,6.491-5.859c0.919-1.091-7.122,4.767-7.122,4.767L22.685,28.143z"/>
					</g>
				</g>
				<g>
					<g>
						<path fill="#FABF46" d="M37.39,35.494c0,0,2.068,1.723,2.929,2.184c0.861,0.461,1.436-0.115,1.436-0.115l-2.241-3.217
							L37.39,35.494z"/>
					</g>
				</g>
				<g>
					<g>
						<path fill="#FABF46" d="M44.052,36.297c0,0,1.896-0.572,0.229-1.434c-1.665-0.861-4.768-3.447-4.768-3.447
							c-1.264-1.377-2.757-0.344-2.757-0.344L44.052,36.297z"/>
					</g>
				</g>
				<g>
					<g>
						<path fill="#FABF46" d="M39.055,31.072c0,0,0.747,0.518,1.322,1.09c0.574,0.576-0.173,0.691-0.173,0.691l-0.976-0.748"/>
					</g>
				</g>
			</g>
		</g>
		<g>
			<g>
				<g>
					<g>
						<g>
							<g>
								<g>
									<path fill="#FABF46" d="M40.377,23.26c0.401,0.517,1.148,0.633,1.665,0.173l1.781-1.666
										c0.517-0.46,0.573-1.263,0.114-1.838c-0.402-0.517-1.149-0.632-1.666-0.173l-1.781,1.666
										C40.032,21.881,39.975,22.686,40.377,23.26z"/>
								</g>
								<g>
									<path fill="#FABF46" d="M43.076,18.379L43.076,18.379c0.689,0,1.321,0.344,1.781,0.859
										c0.747,0.978,0.631,2.414-0.231,3.274l-1.779,1.666c-0.919,0.862-2.47,0.748-3.274-0.286
										c-0.747-0.977-0.632-2.413,0.23-3.274l1.78-1.667C41.984,18.609,42.5,18.379,43.076,18.379z M41.237,22.572l1.838-1.608
										c0.057-0.057,0.114-0.287,0-0.345l-0.057-0.058l0,0l-1.781,1.667C41.18,22.284,41.18,22.457,41.237,22.572z"/>
								</g>
							</g>
						</g>
						<g>
							<g>
								<g>
									<g>
										<path fill="#FABF46" d="M4.419,32.277c0.229,0.631,2.24,5.285,7.352,6.895c5.801,1.779,13.154-1.033,21.884-8.328
											l-1.205-1.838c-8.043,6.777-14.992,9.533-20.104,7.982c-4.424-1.379-6.145-5.742-6.145-5.742
											C1.088,20.102,8.324,12.75,8.668,12.462c2.471-2.354,5.228-3.39,8.157-2.987c3.274,0.401,6.491,2.47,9.133,4.824
											l1.551-1.55c-3.562-3.217-7.066-5.112-10.396-5.514C16.597,7.177,16.136,7.12,15.62,7.12
											c-2.987,0-5.744,1.207-8.272,3.619C7.233,10.796-1.669,19.7,4.419,32.277z"/>
									</g>
									<g>
										<path fill="#FABF46" d="M15.62,5.971c0.516,0,1.091,0.058,1.608,0.115c3.561,0.459,7.237,2.411,10.971,5.801l0.862,0.747
											l-3.044,3.103l-0.748-0.69c-3.044-2.699-5.916-4.192-8.559-4.537c-2.641-0.346-5.055,0.574-7.296,2.699
											c-0.287,0.288-7.006,7.123-2.24,17.577c0.058,0.115,1.61,3.963,5.458,5.17c4.652,1.436,11.43-1.322,19.07-7.754
											l0.918-0.746l2.471,3.617l-0.747,0.631c-9.019,7.58-16.773,10.457-22.919,8.561c-5.572-1.725-7.696-6.551-8.042-7.525
											c-6.375-13.211,3.102-22.63,3.159-22.748C9.301,7.292,12.346,5.971,15.62,5.971z M25.959,12.75
											c-3.102-2.642-6.147-4.135-8.962-4.538c-3.215-0.402-6.203,0.688-8.902,3.273c0,0-0.115,0.116-0.229,0.23l0.056-0.059
											c2.7-2.584,5.803-3.732,9.075-3.273C19.812,8.729,22.8,10.222,25.959,12.75L25.959,12.75z M32.22,30.613L32.22,30.613
											c-6.491,5.17-12.177,7.867-16.944,7.867c-1.149,0-2.241-0.172-3.274-0.457c-2.471-0.746-4.194-2.355-5.285-3.732
											c1.034,1.434,2.757,3.043,5.341,3.848C17.343,39.746,24.178,37.217,32.22,30.613z"/>
									</g>
								</g>
							</g>
						</g>
						<g>
							<g>
								<path fill="#FABF46" d="M28.487,11.945c0,0,1.665,1.205,0.458,2.988c0,0-0.574,0.975-1.666,1.032
									c0,0-0.632,0.115-1.263-0.229c0,0-1.552-1.207-2.012-1.666c-0.516-0.46-0.631-0.633-0.631-0.633l-0.116-1.781l4.309-0.458
									L28.487,11.945z"/>
							</g>
						</g>
					</g>
					<g>
						<g>
							<path fill="#FABF46" d="M29.808,22.054"/>
						</g>
					</g>
					<g>
						<g>
							<path fill="#FABF46" d="M35.092,31.016c0,0,9.419-8.157,9.592-8.616c0.172-0.46-0.23-1.839-0.23-1.839L43.25,19.7
								l-2.184-0.229l-1.607,1.608c0,0-8.79,8.212-9.134,8.443c-0.344,0.287-0.229,2.068-0.229,2.068L35.092,31.016z"/>
						</g>
					</g>
					<g>
						<g>
							<path fill="#FABF46" d="M39.975,20.561c0,0-8.387,7.699-8.617,7.984c-0.287,0.287,0.689,0.344,0.689,0.344l8.156-7.982
								L39.975,20.561z"/>
						</g>
					</g>
				</g>
				<g>
					<g>
						<path fill="#FABF46" d="M41.697,18.895c0,0-2.183,1.724-3.561,3.333c-1.436,1.606,1.78,1.377,1.78,1.377l2.183-2.125
							L41.697,18.895z"/>
					</g>
				</g>
				<g>
					<g>
						<g>
							<path fill="#FABF46" d="M35.667,24.697"/>
						</g>
					</g>
				</g>
				<g>
					<g>
						<path fill="#FABF46" d="M36.183,30.096c0,0-1.263,1.092-1.723,1.494c-0.517,0.402-0.517,0.402-0.517,0.402l-0.459-0.344
							l2.699-2.012V30.096z"/>
					</g>
				</g>
				<g>
					<g>
						<path fill="#FABF46" d="M38.366,28.201c0,0-1.781,1.723-3.045,2.699c-1.264,0.975-2.183,0.516-2.183,0.516l1.896-2.699
							c0,0,1.723-1.092,1.838-1.148C36.988,27.512,38.366,28.201,38.366,28.201z"/>
					</g>
				</g>
				<g>
					<g>
						<path fill="#FABF46" d="M40.032,26.707c0,0-4.595,4.365-7.812,6.662c-3.159,2.299-3.333,1.953-3.333,1.838
							s1.953-4.709,1.953-4.709s3.562-2.414,4.424-2.527C36.183,27.857,40.032,26.707,40.032,26.707z"/>
					</g>
				</g>
				<g>
					<g>
						<path fill="#FABF46" d="M42.272,18.55c0,0-5.572,4.769-6.49,5.859c-0.92,1.091,7.122-4.769,7.122-4.769L42.272,18.55z"/>
					</g>
				</g>
				<g>
					<g>
						<path fill="#FABF46" d="M27.567,11.256c0,0-2.068-1.724-2.929-2.184c-0.862-0.458-1.436,0.114-1.436,0.114l2.24,3.217
							L27.567,11.256z"/>
					</g>
				</g>
				<g>
					<g>
						<path fill="#FABF46" d="M20.905,10.394c0,0-1.896,0.574-0.23,1.436c1.666,0.805,4.768,3.446,4.768,3.446
							c1.264,1.379,2.757,0.346,2.757,0.346L20.905,10.394z"/>
					</g>
				</g>
				<g>
					<g>
						<path fill="#FABF46" d="M25.901,15.622c0,0-0.747-0.518-1.321-1.092c-0.631-0.574,0.171-0.689,0.171-0.689l0.978,0.747"/>
					</g>
				</g>
			</g>
		</g>
	</g>
	<g>
		<path fill="#FABF46" d="M86.845,22.284v18.841h-7.353V6.259h7.353v6.375c1.033-2.125,2.642-3.849,4.768-5.055
			c2.125-1.206,4.423-1.838,6.835-1.838c5.514,0,9.249,2.298,11.201,6.836c3.446-4.538,7.754-6.836,12.924-6.836
			c3.906,0,7.122,1.206,9.536,3.619c2.411,2.412,3.616,5.858,3.616,10.396v21.369h-7.351V21.998c0-6.434-2.643-9.65-7.984-9.65
			c-2.47,0-4.652,0.803-6.491,2.412c-1.838,1.607-2.813,3.905-2.93,6.95v19.416h-7.352V21.998c0-3.333-0.575-5.745-1.78-7.296
			c-1.206-1.552-3.044-2.298-5.572-2.298c-2.528,0-4.709,0.862-6.605,2.529C87.821,16.597,86.845,19.011,86.845,22.284z"/>
		<path fill="#FABF46" d="M145.893,36.645c-3.273-3.334-4.939-7.697-4.939-13.096c0-5.4,1.666-9.766,5.055-12.982
			c3.389-3.216,7.352-4.824,11.948-4.824c4.595,0,8.385,2.183,11.314,6.548v-6.03h7.352v34.866h-7.352v-5.688
			c-1.379,2.01-3.159,3.561-5.342,4.594c-2.183,1.094-4.308,1.609-6.491,1.609C153.016,41.641,149.167,39.975,145.893,36.645z
			 M148.306,23.893c0,3.33,1.091,6.031,3.217,8.158c2.125,2.064,4.652,3.156,7.524,3.156c2.871,0,5.342-1.033,7.352-3.156
			c2.012-2.127,2.987-4.828,2.987-8.158c0-3.332-0.976-6.089-2.987-8.329c-2.01-2.24-4.48-3.332-7.409-3.332
			s-5.457,1.092-7.525,3.332C149.339,17.746,148.306,20.504,148.306,23.893z"/>
		<path fill="#FABF46" d="M191.789,22.284v18.841h-7.354V6.259h7.354v6.375c1.203-2.125,2.812-3.849,4.881-5.055
			c2.066-1.206,4.307-1.838,6.721-1.838c3.906,0,7.123,1.206,9.535,3.619c2.412,2.412,3.619,5.858,3.619,10.396v21.369h-7.352
			V21.998c0-6.434-2.645-9.65-7.984-9.65c-2.529,0-4.713,0.861-6.607,2.526C192.707,16.597,191.789,19.011,191.789,22.284z"/>
		<path fill="#FABF46" d="M231.363,22.284v18.841h-7.352V6.259h7.352v6.375c1.207-2.125,2.816-3.849,4.883-5.055
			s4.309-1.838,6.721-1.838c3.906,0,7.123,1.206,9.535,3.619c2.412,2.412,3.619,5.858,3.619,10.396v21.369h-7.352V21.998
			c0-6.434-2.643-9.65-7.986-9.65c-2.525,0-4.709,0.861-6.604,2.526C232.283,16.597,231.363,19.011,231.363,22.284z"/>
		<path fill="#FABF46" d="M279.441,5.742c4.768,0,8.73,1.322,11.832,3.964c3.16,2.642,4.709,6.088,4.77,10.338l0.055,0.115
			l-25.389,10.685c2.299,2.812,5.344,4.191,9.25,4.191c3.904,0,7.123-1.549,9.65-4.594l4.307,4.766
			c-4.137,4.309-9.02,6.434-14.648,6.434c-4.938,0-9.189-1.666-12.693-4.941c-3.561-3.273-5.285-7.58-5.285-12.978
			c0-3.734,0.92-6.952,2.758-9.766c1.838-2.814,4.078-4.883,6.838-6.203C273.525,6.43,276.396,5.742,279.441,5.742z M268.355,23.893
			c0,0.574,0,0.977,0.057,1.263l19.301-8.328c-1.494-2.872-4.137-4.309-7.928-4.309c-2.871,0-5.514,0.978-7.869,2.986
			C269.561,17.517,268.355,20.332,268.355,23.893z"/>
		<path fill="#FABF46" d="M319.189,13.15c-3.619,0-6.375,1.208-8.213,3.563c-1.84,2.354-2.758,5.515-2.758,9.476v14.936h-7.354
			V6.259h7.354v7.007c1.207-2.183,2.758-3.964,4.824-5.399c2.012-1.378,4.193-2.125,6.434-2.183l0.059,7.41
			C319.42,13.15,319.303,13.15,319.189,13.15z"/>
		<path fill="#FABF46" d="M349,30.729c0,3.33-1.207,5.971-3.617,7.982c-2.414,2.012-5.459,2.986-9.25,2.986
			c-2.525,0-5.168-0.459-7.869-1.377c-2.756-0.92-5.17-2.182-7.236-3.848l3.561-5.688c4.078,3.043,7.984,4.596,11.777,4.596
			c1.662,0,2.986-0.402,3.906-1.15c0.975-0.744,1.434-1.723,1.434-2.926c0-1.727-2.297-3.334-6.949-4.713
			c-0.344-0.113-0.631-0.229-0.805-0.287c-7.236-1.953-10.857-5.226-10.857-9.822c0-3.217,1.266-5.802,3.791-7.754
			c2.527-1.953,5.803-2.931,9.766-2.931c4.02,0,7.812,1.206,11.375,3.562l-2.758,5.456c-2.814-1.896-5.916-2.813-9.248-2.813
			c-1.725,0-3.16,0.344-4.25,0.975c-1.092,0.633-1.666,1.609-1.666,2.873c0,1.148,0.574,1.953,1.723,2.47
			c0.805,0.402,1.896,0.746,3.332,1.092c1.436,0.344,2.699,0.689,3.791,1.033c1.092,0.345,2.123,0.747,3.158,1.207
			c1.035,0.459,2.127,1.033,3.332,1.838C347.793,24.927,349,27.396,349,30.729z"/>
	</g>
</g>
</svg>
